<svg width="106" height="79" viewBox="0 0 106 79" fill="none" xmlns="http://www.w3.org/2000/svg">
<path d="M92.2116 59.6322H42.1763V48.8917M42.1763 48.8917H38.5088V37.1033M42.1763 48.8917H50.5592M38.5088 37.1033H34.5793V24.529M38.5088 37.1033H92.2116M34.5793 24.529H30.6499V16.932H27.5063V13.5264M34.5793 24.529H96.1411M27.5063 13.5264V5.66751H23.3149V2H0M27.5063 13.5264H50.5592M96.1411 24.529H100.332V16.932H104V13.5264H81.2091M96.1411 24.529V37.1033H92.2116M92.2116 37.1033V48.8917H81.2091M50.5592 48.8917V13.5264M50.5592 48.8917H65.7531M50.5592 13.5264H65.7531M65.7531 48.8917V13.5264M65.7531 48.8917H81.2091M65.7531 13.5264H81.2091M81.2091 48.8917V13.5264M49.5113 66.7053V76.66H59.728V66.7053H49.5113ZM75.9698 66.7053V76.66H85.6625V66.7053H75.9698Z" stroke="white" stroke-width="3.66751"/>
</svg>
