<svg width="1749" height="2660" viewBox="0 0 1749 2660" fill="none" xmlns="http://www.w3.org/2000/svg">
<path fill-rule="evenodd" clip-rule="evenodd" d="M0 7H2.5H5V5H7.05095V2.5V0H5H2.5H0V2.5V5V7ZM21.1558 2.5V0H35.2606V2.5V5H21.1558V2.5ZM49.3654 2.5V0H63.4704V2.5V5H49.3654V2.5ZM77.5752 2.5V0H91.68V2.5V5H77.5752V2.5ZM105.785 2.5V0H119.89V2.5V5H105.785V2.5ZM133.995 2.5V0H148.1V2.5V5H133.995V2.5ZM162.204 2.5V0H176.309V2.5V5H162.204V2.5ZM190.414 2.5V0H204.519V2.5V5H190.414V2.5ZM218.624 2.5V0H232.729V2.5V5H218.624V2.5ZM246.834 2.5V0H260.938V2.5V5H246.834V2.5ZM275.043 2.5V0H289.148V2.5V5H275.043V2.5ZM303.253 2.5V0H317.358V2.5V5H303.253V2.5ZM331.463 2.5V0H345.567V2.5V5H331.463V2.5ZM359.672 2.5V0H373.777V2.5V5H359.672V2.5ZM387.882 2.5V0H401.987V2.5V5H387.882V2.5ZM416.092 2.5V0H430.197V2.5V5H416.092V2.5ZM1347.01 2.5V0H1361.12V2.5V5H1347.01V2.5ZM1375.22 2.5V0H1389.33V2.5V5H1375.22V2.5ZM1403.43 2.5V0H1417.54V2.5V5H1403.43V2.5ZM1431.64 2.5V0H1445.75V2.5V5H1431.64V2.5ZM1459.85 2.5V0H1473.96V2.5V5H1459.85V2.5ZM1488.06 2.5V0H1502.17V2.5V5H1488.06V2.5ZM1516.27 2.5V0H1530.38V2.5V5H1516.27V2.5ZM1544.48 2.5V0H1558.58V2.5V5H1544.48V2.5ZM1572.69 2.5V0H1586.79V2.5V5H1572.69V2.5ZM1600.9 2.5V0H1615V2.5V5H1600.9V2.5ZM1629.11 2.5V0H1643.21V2.5V5H1629.11V2.5ZM1657.32 2.5V0H1671.42V2.5V5H1657.32V2.5ZM1685.53 2.5V0H1699.63V2.5V5H1685.53V2.5ZM1713.74 2.5V0H1727.84V2.5V5H1713.74V2.5ZM1741.95 2.5V0H1744H1746.5H1749V2.5V5V7.00007H1746.5H1744V5H1741.95V2.5ZM1749 21V35H1746.5H1744V21H1746.5H1749ZM1746.5 49H1749V63H1746.5H1744V49H1746.5ZM1746.5 77H1749V90.9999H1746.5H1744V77H1746.5ZM1746.5 105H1749V119H1746.5H1744V105H1746.5ZM1746.5 133H1749V147H1746.5H1744V133H1746.5ZM1746.5 161H1749V175H1746.5H1744V161H1746.5ZM1746.5 189H1749V203H1746.5H1744V189H1746.5ZM1746.5 217H1749V231H1746.5H1744V217H1746.5ZM1746.5 245H1749V259H1746.5H1744V245H1746.5ZM1746.5 273H1749V287H1746.5H1744V273H1746.5ZM1746.5 301H1749V315H1746.5H1744V301H1746.5ZM1746.5 329H1749V343H1746.5H1744V329H1746.5ZM1746.5 357H1749V371H1746.5H1744V357H1746.5ZM1746.5 385H1749V399H1746.5H1744V385H1746.5ZM1746.5 413H1749V427H1746.5H1744V413H1746.5ZM1746.5 441H1749V455H1746.5H1744V441H1746.5ZM1746.5 469H1749V483H1746.5H1744V469H1746.5ZM1746.5 497H1749V511H1746.5H1744V497H1746.5ZM1746.5 525H1749V539H1746.5H1744V525H1746.5ZM1746.5 553H1749V567H1746.5H1744V553H1746.5ZM1746.5 581H1749V595H1746.5H1744V581H1746.5ZM1746.5 609H1749V623H1746.5H1744V609H1746.5ZM1746.5 637H1749V651H1746.5H1744V637H1746.5ZM1746.5 665H1749V679H1746.5H1744V665H1746.5ZM1746.5 693H1749V707H1746.5H1744V693H1746.5ZM1746.5 721H1749V735H1746.5H1744V721H1746.5ZM1746.5 749H1749V763H1746.5H1744V749H1746.5ZM1746.5 777H1749V791H1746.5H1744V777H1746.5ZM1746.5 805H1749V819H1746.5H1744V805H1746.5ZM1746.5 833H1749V847H1746.5H1744V833H1746.5ZM1746.5 861H1749V875H1746.5H1744V861H1746.5ZM1746.5 889H1749V903H1746.5H1744V889H1746.5ZM1746.5 917H1749V931H1746.5H1744V917H1746.5ZM1746.5 945H1749V959H1746.5H1744V945H1746.5ZM1746.5 973H1749V987H1746.5H1744V973H1746.5ZM1746.5 1001H1749V1015H1746.5H1744V1001H1746.5ZM1746.5 1029H1749V1043H1746.5H1744V1029H1746.5ZM1746.5 1057H1749V1071H1746.5H1744V1057H1746.5ZM1746.5 1085H1749V1099H1746.5H1744V1085H1746.5ZM1746.5 1113H1749V1127H1746.5H1744V1113H1746.5ZM1746.5 1141H1749V1155H1746.5H1744V1141H1746.5ZM1746.5 1169H1749V1183H1746.5H1744V1169H1746.5ZM1746.5 1197H1749V1211H1746.5H1744V1197H1746.5ZM1746.5 1225H1749V1239H1746.5H1744V1225H1746.5ZM1746.5 1253H1749V1267H1746.5H1744V1253H1746.5ZM1746.5 1281H1749V1295H1746.5H1744V1281H1746.5ZM1746.5 1309H1749V1323H1746.5H1744V1309H1746.5ZM1746.5 1337H1749V1351H1746.5H1744V1337H1746.5ZM1746.5 1365H1749V1379H1746.5H1744V1365H1746.5ZM1746.5 1393H1749V1407H1746.5H1744V1393H1746.5ZM1746.5 1421H1749V1435H1746.5H1744V1421H1746.5ZM1746.5 1449H1749V1463H1746.5H1744V1449H1746.5ZM1746.5 1477H1749V1491H1746.5H1744V1477H1746.5ZM1746.5 1505H1749V1519H1746.5H1744V1505H1746.5ZM1746.5 1533H1749V1547H1746.5H1744V1533H1746.5ZM1746.5 1561H1749V1575H1746.5H1744V1561H1746.5ZM1746.5 1589H1749V1603H1746.5H1744V1589H1746.5ZM1746.5 1617H1749V1631H1746.5H1744V1617H1746.5ZM1746.5 1645H1749V1659H1746.5H1744V1645H1746.5ZM1746.5 1673H1749V1687H1746.5H1744V1673H1746.5ZM1746.5 1701H1749V1715H1746.5H1744V1701H1746.5ZM1746.5 1729H1749V1743H1746.5H1744V1729H1746.5ZM1746.5 1757H1749V1771H1746.5H1744V1757H1746.5ZM1746.5 1785H1749V1799H1746.5H1744V1785H1746.5ZM1746.5 1813H1749V1827H1746.5H1744V1813H1746.5ZM1746.5 1841H1749V1855H1746.5H1744V1841H1746.5ZM1746.5 1869H1749V1883H1746.5H1744V1869H1746.5ZM1746.5 1897H1749V1911H1746.5H1744V1897H1746.5ZM1746.5 1925H1749V1939H1746.5H1744V1925H1746.5ZM1746.5 1953H1749V1967H1746.5H1744V1953H1746.5ZM1746.5 1981H1749V1995H1746.5H1744V1981H1746.5ZM1746.5 2009H1749V2023H1746.5H1744V2009H1746.5ZM1746.5 2037H1749V2051H1746.5H1744V2037H1746.5ZM1746.5 2065H1749V2079H1746.5H1744V2065H1746.5ZM1746.5 2093H1749V2107H1746.5H1744V2093H1746.5ZM1746.5 2121H1749V2135H1746.5H1744V2121H1746.5ZM1746.5 2149H1749V2163H1746.5H1744V2149H1746.5ZM1746.5 2177H1749V2191H1746.5H1744V2177H1746.5ZM1746.5 2205H1749V2219H1746.5H1744V2205H1746.5ZM1746.5 2233H1749V2247H1746.5H1744V2233H1746.5ZM1746.5 2261H1749V2275H1746.5H1744V2261H1746.5ZM1746.5 2289H1749V2303H1746.5H1744V2289H1746.5ZM1746.5 2317H1749V2331H1746.5H1744V2317H1746.5ZM1746.5 2345H1749V2359H1746.5H1744V2345H1746.5ZM1746.5 2373H1749V2387H1746.5H1744V2373H1746.5ZM1746.5 2401H1749V2415H1746.5H1744V2401H1746.5ZM1746.5 2429H1749V2443H1746.5H1744V2429H1746.5ZM1746.5 2457H1749V2471H1746.5H1744V2457H1746.5ZM1746.5 2485H1749V2499H1746.5H1744V2485H1746.5ZM1746.5 2513H1749V2527H1746.5H1744V2513H1746.5ZM1746.5 2541H1749V2555H1746.5H1744V2541H1746.5ZM1746.5 2569H1749V2583H1746.5H1744V2569H1746.5ZM1746.5 2597H1749V2611H1746.5H1744V2597H1746.5ZM1746.5 2625H1749V2639H1746.5H1744V2625H1746.5ZM1746.5 2653H1749V2655V2657.5V2660H1746.5H1744H1741.95V2657.5V2655H1744V2653H1746.5ZM1727.84 2657.5V2660H1713.74V2657.5V2655H1727.84V2657.5ZM1699.63 2657.5V2660H1685.53V2657.5V2655H1699.63V2657.5ZM1671.42 2657.5V2660H1657.32V2657.5V2655H1671.42V2657.5ZM1643.22 2657.5V2660H1629.11V2657.5V2655H1643.22V2657.5ZM1615.01 2657.5V2660H1600.9V2657.5V2655H1615.01V2657.5ZM1586.8 2657.5V2660H1572.69V2657.5V2655H1586.8V2657.5ZM1558.59 2657.5V2660H1544.48V2657.5V2655H1558.59V2657.5ZM1530.38 2657.5V2660H1516.27V2657.5V2655H1530.38V2657.5ZM1502.17 2657.5V2660H1488.06V2657.5V2655H1502.17V2657.5ZM1473.96 2657.5V2660H1459.85V2657.5V2655H1473.96V2657.5ZM1445.75 2657.5V2660H1431.64V2657.5V2655H1445.75V2657.5ZM1417.54 2657.5V2660H1403.43V2657.5V2655H1417.54V2657.5ZM1389.33 2657.5V2660H1375.22V2657.5V2655H1389.33V2657.5ZM1361.12 2657.5V2660H1347.01V2657.5V2655H1361.12V2657.5ZM1332.91 2657.5V2660H1318.8V2657.5V2655H1332.91V2657.5ZM1304.7 2657.5V2660H1290.59V2657.5V2655H1304.7V2657.5ZM1276.49 2657.5V2660H1262.38V2657.5V2655H1276.49V2657.5ZM1248.28 2657.5V2660H1234.17V2657.5V2655H1248.28V2657.5ZM1220.07 2657.5V2660H1205.96V2657.5V2655H1220.07V2657.5ZM1191.86 2657.5V2660H1177.75V2657.5V2655H1191.86V2657.5ZM1163.65 2657.5V2660H1149.55V2657.5V2655H1163.65V2657.5ZM1135.44 2657.5V2660H1121.34V2657.5V2655H1135.44V2657.5ZM1107.23 2657.5V2660H1093.13V2657.5V2655H1107.23V2657.5ZM1079.02 2657.5V2660H1064.92V2657.5V2655H1079.02V2657.5ZM1050.81 2657.5V2660H1036.71V2657.5V2655H1050.81V2657.5ZM1022.6 2657.5V2660H1008.5V2657.5V2655H1022.6V2657.5ZM994.392 2657.5V2660H980.287V2657.5V2655H994.392V2657.5ZM966.182 2657.5V2660H952.077V2657.5V2655H966.182V2657.5ZM937.972 2657.5V2660H923.867V2657.5V2655H937.972V2657.5ZM909.762 2657.5V2660H895.658V2657.5V2655H909.762V2657.5ZM881.553 2657.5V2660H867.448V2657.5V2655H881.553V2657.5ZM853.343 2657.5V2660H839.238V2657.5V2655H853.343V2657.5ZM825.133 2657.5V2660H811.029V2657.5V2655H825.133V2657.5ZM796.924 2657.5V2660H782.819V2657.5V2655H796.924V2657.5ZM768.714 2657.5V2660H754.609V2657.5V2655H768.714V2657.5ZM740.504 2657.5V2660H726.399V2657.5V2655H740.504V2657.5ZM712.294 2657.5V2660H698.19V2657.5V2655H712.294V2657.5ZM684.085 2657.5V2660H669.98V2657.5V2655H684.085V2657.5ZM655.875 2657.5V2660H641.77V2657.5V2655H655.875V2657.5ZM627.665 2657.5V2660H613.56V2657.5V2655H627.665V2657.5ZM599.456 2657.5V2660H585.351V2657.5V2655H599.456V2657.5ZM571.246 2657.5V2660H557.141V2657.5V2655H571.246V2657.5ZM543.036 2657.5V2660H528.931V2657.5V2655H543.036V2657.5ZM514.826 2657.5V2660H500.722V2657.5V2655H514.826V2657.5ZM486.617 2657.5V2660H472.512V2657.5V2655H486.617V2657.5ZM458.407 2657.5V2660H444.302V2657.5V2655H458.407V2657.5ZM430.197 2657.5V2660H416.093V2657.5V2655H430.197V2657.5ZM401.988 2657.5V2660H387.883V2657.5V2655H401.988V2657.5ZM373.778 2657.5V2660H359.673V2657.5V2655H373.778V2657.5ZM345.569 2657.5V2660H331.464V2657.5V2655H345.569V2657.5ZM317.359 2657.5V2660H303.254V2657.5V2655H317.359V2657.5ZM289.149 2657.5V2660H275.044V2657.5V2655H289.149V2657.5ZM260.94 2657.5V2660H246.835V2657.5V2655H260.94V2657.5ZM232.73 2657.5V2660H218.625V2657.5V2655H232.73V2657.5ZM204.52 2657.5V2660H190.415V2657.5V2655H204.52V2657.5ZM176.31 2657.5V2660H162.206V2657.5V2655H176.31V2657.5ZM148.101 2657.5V2660H133.996V2657.5V2655H148.101V2657.5ZM119.891 2657.5V2660H105.786V2657.5V2655H119.891V2657.5ZM91.6814 2657.5V2660H77.5766V2657.5V2655H91.6814V2657.5ZM63.4718 2657.5V2660H49.3669V2657.5V2655H63.4718V2657.5ZM35.2621 2657.5V2660H21.1573V2657.5V2655H35.2621V2657.5ZM7.05242 2657.5V2660H5H2.5H0V2657.5V2655V2653H2.5H5V2655H7.05242V2657.5ZM2.5 2639H0V2625H2.5H5V2639H2.5ZM2.5 2611H0V2597H2.5H5V2611H2.5ZM2.5 2583H0V2569H2.5H5V2583H2.5ZM2.5 2555H0V2541H2.5H5V2555H2.5ZM2.5 2527H0V2513H2.5H5V2527H2.5ZM2.5 2499H0V2485H2.5H5V2499H2.5ZM2.5 2471H0V2457H2.5H5V2471H2.5ZM2.5 2443H0V2429H2.5H5V2443H2.5ZM2.5 2415H0V2401H2.5H5V2415H2.5ZM2.5 2387H0V2373H2.5H5V2387H2.5ZM2.5 2359H0V2345H2.5H5V2359H2.5ZM2.5 2331H0V2317H2.5H5V2331H2.5ZM2.5 2303H0V2289H2.5H5V2303H2.5ZM2.5 2275H0V2261H2.5H5V2275H2.5ZM2.5 2247H0V2233H2.5H5V2247H2.5ZM2.5 2219H0V2205H2.5H5V2219H2.5ZM2.5 2191H0V2177H2.5H5V2191H2.5ZM2.5 2163H0V2149H2.5H5V2163H2.5ZM2.5 2135H0V2121H2.5H5V2135H2.5ZM2.5 2107H0V2093H2.5H5V2107H2.5ZM2.5 2079H0V2065H2.5H5V2079H2.5ZM2.5 2051H0V2037H2.5H5V2051H2.5ZM2.5 2023H0V2009H2.5H5V2023H2.5ZM2.5 1995H0V1981H2.5H5V1995H2.5ZM2.5 1967H0V1953H2.5H5V1967H2.5ZM2.5 1939H0V1925H2.5H5V1939H2.5ZM2.5 1911H0V1897H2.5H5V1911H2.5ZM2.5 1883H0V1869H2.5H5V1883H2.5ZM2.5 1855H0V1841H2.5H5V1855H2.5ZM2.5 1827H0V1813H2.5H5V1827H2.5ZM2.5 1799H0V1785H2.5H5V1799H2.5ZM2.5 1771H0V1757H2.5H5V1771H2.5ZM2.5 1743H0V1729H2.5H5V1743H2.5ZM2.5 1715H0V1701H2.5H5V1715H2.5ZM2.5 1687H0V1673H2.5H5V1687H2.5ZM2.5 1659H0V1645H2.5H5V1659H2.5ZM2.5 1631H0V1617H2.5H5V1631H2.5ZM2.5 1603H0V1589H2.5H5V1603H2.5ZM2.5 1575H0V1561H2.5H5V1575H2.5ZM2.5 1547H0V1533H2.5H5V1547H2.5ZM2.5 1519H0V1505H2.5H5V1519H2.5ZM2.5 1491H0V1477H2.5H5V1491H2.5ZM2.5 1463H0V1449H2.5H5V1463H2.5ZM2.5 1435H0V1421H2.5H5V1435H2.5ZM2.5 1407H0V1393H2.5H5V1407H2.5ZM2.5 1379H0V1365H2.5H5V1379H2.5ZM2.5 1351H0V1337H2.5H5V1351H2.5ZM2.5 1323H0V1309H2.5H5V1323H2.5ZM2.5 1295H0V1281H2.5H5V1295H2.5ZM2.5 1267H0V1253H2.5H5V1267H2.5ZM2.5 1239H0V1225H2.5H5V1239H2.5ZM2.5 1211H0V1197H2.5H5V1211H2.5ZM2.5 1183H0V1169H2.5H5V1183H2.5ZM2.5 1155H0V1141H2.5H5V1155H2.5ZM2.5 1127H0V1113H2.5H5V1127H2.5ZM2.5 1099H0V1085H2.5H5V1099H2.5ZM2.5 1071H0V1057H2.5H5V1071H2.5ZM2.5 1043H0V1029H2.5H5V1043H2.5ZM2.5 1015H0V1001H2.5H5V1015H2.5ZM2.5 987H0V973H2.5H5V987H2.5ZM2.5 959H0V945H2.5H5V959H2.5ZM2.5 931H0V917H2.5H5V931H2.5ZM2.5 903H0V889H2.5H5V903H2.5ZM2.5 875H0V861H2.5H5V875H2.5ZM2.5 847H0V833H2.5H5V847H2.5ZM2.5 819H0V805H2.5H5V819H2.5ZM2.5 791H0V777H2.5H5V791H2.5ZM2.5 763H0V749H2.5H5V763H2.5ZM2.5 735H0V721H2.5H5V735H2.5ZM2.5 707H0V693H2.5H5V707H2.5ZM2.5 679H0V665H2.5H5V679H2.5ZM2.5 651H0V637H2.5H5V651H2.5ZM2.5 623H0V609H2.5H5V623H2.5ZM2.5 595H0V581H2.5H5V595H2.5ZM2.5 567H0V553H2.5H5V567H2.5ZM2.5 539H0V525H2.5H5V539H2.5ZM2.5 511H0V497H2.5H5V511H2.5ZM2.5 483H0V469H2.5H5V483H2.5ZM2.5 455H0V441H2.5H5V455H2.5ZM2.5 427H0V413H2.5H5V427H2.5ZM2.5 399H0V385H2.5H5V399H2.5ZM2.5 371H0V357H2.5H5V371H2.5ZM2.5 343H0V329H2.5H5V343H2.5ZM2.5 315H0V301H2.5H5V315H2.5ZM2.5 287H0V273H2.5H5V287H2.5ZM2.5 259H0V245H2.5H5V259H2.5ZM2.5 231H0V217H2.5H5V231H2.5ZM2.5 203H0V189H2.5H5V203H2.5ZM2.5 175H0V161H2.5H5V175H2.5ZM2.5 147H0V133H2.5H5V147H2.5ZM2.5 119H0V105H2.5H5V119H2.5ZM2.5 91H0V77H2.5H5V91H2.5ZM2.5 63H0V49H2.5H5V63H2.5ZM2.5 35H0V21H2.5H5V35H2.5Z" fill="#FEFCFC" fill-opacity="0.36"/>
</svg>
